# xmcd
#
# Track frame offsets:
#	150
#	13036
#	26395
#	38758
#	51851
#	63434
#	75024
#	86432
#	98097
#	111233
#	122191
#	134421
#	146538
#	158854
#	170114
#	182003
#	194538
#	206128
#
# Disc length: 2914 seconds
#
# Revision: 0
# Processed by: cddbd v1.5.1PL2 Copyright (c) Steve Scherf et al.
# Submitted via: dBpowerAMP V4.0
#
DISCID=f30b6012
DTITLE=Hank Williams - The Collections
DYEAR=1900
DGENRE=Country
TTITLE0=I'm a Long Gone Daddy
TTITLE1=You're Gonna Change (Or I'm Gonna Leave)
TTITLE2=Honky Tonkin'
TTITLE3=Wedding Bells
TTITLE4=Dear John
TTITLE5=My Son Calls Another Man Daddy
TTITLE6=Baby, We're Really In Love
TTITLE7=Mansion On The Hill
TTITLE8=Mind Your Own  Business
TTITLE9=(I Heard That) Lonesome Whistle
TTITLE10=Howlin' At The Moon
TTITLE11=Lost Highway
TTITLE12=I Won't Be Home No More
TTITLE13=Nobody's Lonesome For Me
TTITLE14=Why Should We Try Anymore
TTITLE15=I Just Don't Like This Kind Of Living
TTITLE16=Weary Blues From Waiting
TTITLE17=I Saw The Light
EXTD=
EXTT0=
EXTT1=
EXTT2=
EXTT3=
EXTT4=
EXTT5=
EXTT6=
EXTT7=
EXTT8=
EXTT9=
EXTT10=
EXTT11=
EXTT12=
EXTT13=
EXTT14=
EXTT15=
EXTT16=
EXTT17=
PLAYORDER=
